# xmcd
#
# Track frame offsets:
# 150
# 15303
# 29882
# 44044
# 61295
# 75353
# 93266
# 106530
# 117171
# 135692
# 153564
# 169252
# 186564
# 203566
# 220206
# 237504
#
# Disc length: 3386 seconds
#
#
# Revision: 0
# Processed by: cddbd v1.5.1PL0 Copyright (c) Steve Scherf et al.
# Submitted via: FreeRIP 2.943 
#
DISCID=d90d3810
DTITLE=Collin Raye - 16 Biggest Hits - 16 Biggest Hits
DYEAR=2002
DGENRE=Country
TTITLE0=Love Me
TTITLE1=In This Life
TTITLE2=Somebody Else's Moon
TTITLE3=That Was A River
TTITLE4=That's My Story
TTITLE5=Little Rock
TTITLE6=My Kind Of Girl
TTITLE7=If I Were You
TTITLE8=One Boy , One Girl
TTITLE9=Not That Different
TTITLE10=I Think About You
TTITLE11=On The Verge
TTITLE12=What The Heart Whats
TTITLE13=I Can Still Feel You
TTITLE14=Someone You Used To Know
TTITLE15=Couldn't Last A Moment
EXTD=
EXTT0=
EXTT1=
EXTT2=
EXTT3=
EXTT4=
EXTT5=
EXTT6=
EXTT7=
EXTT8=
EXTT9=
EXTT10=
EXTT11=
EXTT12=
EXTT13=
EXTT14=
EXTT15=
PLAYORDER=
